<svg id="visual" viewBox="0 0 1440 900" width="1440" height="900" xmlns="http://www.w3.org/2000/svg" xmlns:xlink="http://www.w3.org/1999/xlink" version="1.1"><path d="M0 211L30 206.3C60 201.7 120 192.3 180 178.8C240 165.3 300 147.7 360 154.3C420 161 480 192 540 203.3C600 214.7 660 206.3 720 186C780 165.7 840 133.3 900 124.2C960 115 1020 129 1080 148.7C1140 168.3 1200 193.7 1260 191.7C1320 189.7 1380 160.3 1410 145.7L1440 131L1440 0L1410 0C1380 0 1320 0 1260 0C1200 0 1140 0 1080 0C1020 0 960 0 900 0C840 0 780 0 720 0C660 0 600 0 540 0C480 0 420 0 360 0C300 0 240 0 180 0C120 0 60 0 30 0L0 0Z" fill="#494444" stroke-linecap="round" stroke-linejoin="miter"></path></svg>